<svg xmlns="http://www.w3.org/2000/svg" xmlns:xlink="http://www.w3.org/1999/xlink" width="50" zoomAndPan="magnify" viewBox="0 0 37.5 37.499999" height="50" preserveAspectRatio="xMidYMid meet" version="1.0"><defs><clipPath id="626476ac0e"><path d="M 1.601562 6.671875 L 35.648438 6.671875 L 35.648438 30.355469 L 1.601562 30.355469 Z M 1.601562 6.671875 " clip-rule="nonzero"/></clipPath></defs><g clip-path="url(#626476ac0e)"><path fill="#ffd141" d="M 6.28125 6.71875 C 3.648438 6.71875 1.515625 8.851562 1.515625 11.484375 L 1.515625 25.347656 C 1.515625 27.980469 3.648438 30.113281 6.28125 30.113281 L 22.742188 30.113281 C 25.375 30.113281 27.507812 27.980469 27.507812 25.347656 L 27.507812 23.882812 L 33.480469 26.535156 C 33.882812 26.714844 34.347656 26.675781 34.714844 26.4375 C 35.085938 26.199219 35.308594 25.789062 35.308594 25.347656 L 35.308594 11.484375 C 35.308594 11.042969 35.085938 10.632812 34.714844 10.394531 C 34.347656 10.15625 33.882812 10.117188 33.480469 10.296875 L 27.507812 12.949219 L 27.507812 11.484375 C 27.507812 8.851562 25.375 6.71875 22.742188 6.71875 Z M 6.28125 6.71875 " fill-opacity="1" fill-rule="nonzero"/></g><path fill="#eceff1" d="M 14.945312 11.917969 C 15.664062 11.917969 16.246094 12.5 16.246094 13.21875 L 16.246094 23.613281 C 16.246094 24.332031 15.664062 24.914062 14.945312 24.914062 C 14.226562 24.914062 13.644531 24.332031 13.644531 23.613281 L 13.644531 13.21875 C 13.644531 12.5 14.226562 11.917969 14.945312 11.917969 Z M 14.945312 11.917969 " fill-opacity="1" fill-rule="evenodd"/><path fill="#eceff1" d="M 8.445312 18.417969 C 8.445312 17.699219 9.027344 17.117188 9.746094 17.117188 L 20.144531 17.117188 C 20.863281 17.117188 21.445312 17.699219 21.445312 18.417969 C 21.445312 19.132812 20.863281 19.714844 20.144531 19.714844 L 9.746094 19.714844 C 9.027344 19.714844 8.445312 19.132812 8.445312 18.417969 Z M 8.445312 18.417969 " fill-opacity="1" fill-rule="evenodd"/></svg>